<svg xmlns="http://www.w3.org/2000/svg" width="311.385" height="196.539" viewBox="0 0 311.385 196.539"><path fill="#fff" d="M274.354 195.637c20.452 0 37.03-13.98 37.03-34.432 0-20.453-16.578-37.03-37.03-37.03-6.972 0-13.49 1.93-19.06 5.278.764-3.306 1.18-6.742 1.18-10.28 0-25.194-20.426-45.617-45.62-45.617-9.782 0-18.838 3.088-26.267 8.333 4.12-7.785 6.465-16.655 6.465-26.078C191.052 24.988 166.064 0 135.24 0c-30.824 0-55.812 24.988-55.812 55.812 0 .22.012.438.015.657-.446-.017-.896-.034-1.347-.034-19.86 0-35.958 16.097-35.958 35.956 0 8.48 2.942 16.268 7.854 22.417-2.797-.6-5.696-.92-8.67-.92C18.5 113.893 0 132.394 0 155.216c0 22.824 18.5 41.324 41.322 41.324l233.032-.903"/></svg>