<svg xmlns="http://www.w3.org/2000/svg" width="339.229" height="161.99" viewBox="0 0 339.229 161.99"><path fill="#fff" d="M312.31 161.775c14.868 0 26.92-10.754 26.92-25.62 0-14.866-12.052-26.92-26.92-26.92-.908 0-1.805.048-2.69.138.184-1.916.285-3.854.285-5.816 0-33.154-26.877-60.03-60.03-60.03-12.757 0-24.577 3.99-34.302 10.775C204.773 22.718 174.857 0 139.615 0 96.893 0 61.98 33.375 59.49 75.472c-4.672-1.662-9.7-2.576-14.942-2.576C19.944 72.896 0 92.84 0 117.444s19.944 44.546 44.548 44.546l267.763-.215"/></svg>