<?xml version="1.0" encoding="utf-8"?>
<!-- Generator: Adobe Illustrator 16.0.0, SVG Export Plug-In . SVG Version: 6.00 Build 0)  -->
<!DOCTYPE svg PUBLIC "-//W3C//DTD SVG 1.1//EN" "http://www.w3.org/Graphics/SVG/1.1/DTD/svg11.dtd">
<svg version="1.1" id="Layer_1" xmlns="http://www.w3.org/2000/svg" xmlns:xlink="http://www.w3.org/1999/xlink" x="0px" y="0px"
	 width="311.385px" height="196.539px" viewBox="0 0 311.385 196.539" enable-background="new 0 0 311.385 196.539"
	 xml:space="preserve">
<g id="SPLINE_2_">
	<path fill="#FFFFFF" d="M274.354,195.637c20.452,0,37.03-13.981,37.03-34.432l0,0c0-20.453-16.578-37.031-37.03-37.031l0,0
		c-6.972,0-13.489,1.93-19.06,5.279l0,0c0.764-3.306,1.18-6.742,1.18-10.28l0,0c0-25.194-20.426-45.617-45.62-45.617l0,0
		c-9.782,0-18.838,3.088-26.267,8.333l0,0c4.121-7.784,6.465-16.654,6.465-26.077l0,0C191.053,24.988,166.064,0,135.24,0l0,0
		c-30.824,0-55.812,24.988-55.812,55.812l0,0c0,0.22,0.012,0.438,0.015,0.657l0,0c-0.446-0.016-0.896-0.033-1.347-0.033l0,0
		c-19.859,0-35.958,16.097-35.958,35.956l0,0c0,8.479,2.942,16.268,7.854,22.417l0,0c-2.797-0.598-5.696-0.918-8.67-0.918l0,0
		C18.5,113.892,0,132.393,0,155.215l0,0c0,22.824,18.5,41.324,41.322,41.324l0,0L274.354,195.637"/>
</g>
</svg>
