<?xml version="1.0" encoding="utf-8"?>
<!-- Generator: Adobe Illustrator 16.0.0, SVG Export Plug-In . SVG Version: 6.00 Build 0)  -->
<!DOCTYPE svg PUBLIC "-//W3C//DTD SVG 1.1//EN" "http://www.w3.org/Graphics/SVG/1.1/DTD/svg11.dtd">
<svg version="1.1" id="Layer_1" xmlns="http://www.w3.org/2000/svg" xmlns:xlink="http://www.w3.org/1999/xlink" x="0px" y="0px"
	 width="339.229px" height="161.99px" viewBox="0 0 339.229 161.99" enable-background="new 0 0 339.229 161.99"
	 xml:space="preserve">
<g id="SPLINE_3_">
	<path fill="#FFFFFF" d="M312.311,161.775c14.867,0,26.918-10.754,26.918-25.62l0,0c0-14.866-12.051-26.92-26.918-26.92l0,0
		c-0.909,0-1.806,0.048-2.691,0.138l0,0c0.184-1.916,0.285-3.854,0.285-5.816l0,0c0-33.154-26.877-60.031-60.031-60.031l0,0
		c-12.756,0-24.576,3.99-34.301,10.776l0,0C204.772,22.718,174.857,0,139.615,0l0,0C96.893,0,61.979,33.375,59.49,75.472l0,0
		c-4.672-1.662-9.699-2.576-14.942-2.576l0,0C19.944,72.896,0,92.841,0,117.444l0,0c0,24.603,19.944,44.546,44.548,44.546l0,0
		L312.311,161.775"/>
</g>
</svg>
